<?xml version="1.0" encoding="UTF-8" standalone="no"?>
<svg
   xmlns:dc="http://purl.org/dc/elements/1.1/"
   xmlns:cc="http://creativecommons.org/ns#"
   xmlns:rdf="http://www.w3.org/1999/02/22-rdf-syntax-ns#"
   xmlns:svg="http://www.w3.org/2000/svg"
   xmlns="http://www.w3.org/2000/svg"
   xmlns:sodipodi="http://sodipodi.sourceforge.net/DTD/sodipodi-0.dtd"
   xmlns:inkscape="http://www.inkscape.org/namespaces/inkscape"
   version="1.1"
   width="26"
   height="26"
   viewBox="0 0 26 26"
   enable-background="new 0 0 76.00 76.00"
   xml:space="preserve"
   id="svg2"
   inkscape:version="0.48.4 r9939"
   sodipodi:docname="appbar.grid.svg"><metadata
     id="metadata10"><rdf:RDF><cc:Work
         rdf:about=""><dc:format>image/svg+xml</dc:format><dc:type
           rdf:resource="http://purl.org/dc/dcmitype/StillImage" /></cc:Work></rdf:RDF></metadata><defs
     id="defs8" /><sodipodi:namedview
     pagecolor="#ffffff"
     bordercolor="#666666"
     borderopacity="1"
     objecttolerance="10"
     gridtolerance="10"
     guidetolerance="10"
     inkscape:pageopacity="0"
     inkscape:pageshadow="2"
     inkscape:window-width="1873"
     inkscape:window-height="1056"
     id="namedview6"
     showgrid="false"
     inkscape:zoom="3.1052632"
     inkscape:cx="-6.7627119"
     inkscape:cy="38"
     inkscape:window-x="47"
     inkscape:window-y="24"
     inkscape:window-maximized="1"
     inkscape:current-layer="svg2" /><path
     d="m 11.285708,9.228561 1.371442,0 0,1.371442 -1.371442,0 0,-1.371442 z m -2.057185,3.428671 0,-1.371399 1.371442,0 0,1.371399 -1.371442,0 z m 0,-3.428541 1.371442,0 0,1.371399 -1.371442,0 0,-1.371399 z m 4.11424,0 1.371399,0 0,1.371399 -1.371399,0 0,-1.371399 z m -4.11424,4.114284 1.371442,0 0,1.3714 -1.371442,0 0,-1.3714 z m 0,2.057143 1.371442,0 0,1.371356 -1.371442,0 0,-1.371356 z m 2.057098,0 1.371399,0 0,1.371356 -1.371399,0 0,-1.371356 z m 2.057142,0 1.371399,0 0,1.371356 -1.371399,0 0,-1.371356 z m 2.057142,0 1.371442,-4.4e-5 0,1.3714 -1.371442,0 0,-1.371356 z m 0,-2.057186 1.371442,0 0,1.371443 -1.371442,0 0,-1.371443 z m 0,-2.057142 1.371442,0 0,1.371442 -1.371442,0 0,-1.371442 z m 0,-2.057143 1.371442,0 0,1.371443 -1.371442,0 0,-1.371443 z m -8.228523,0 1.371442,0 0,1.371443 -1.371442,0 0,-1.371443 z m -2.057142,0 1.371442,0 0,1.371443 -1.371442,0 0,-1.371443 z m -2.057098,0 1.371398,0 0,1.371443 -1.371398,0 0,-1.371443 z m 4.11424,6.171427 1.371442,0 0,1.3714 -1.371442,0 0,-1.3714 z m -2.057142,0 1.371442,0 0,1.3714 -1.371442,0 0,-1.3714 z m -2.057098,0 1.371398,0 0,1.3714 -1.371398,0 0,-1.3714 z m 0,-4.114284 1.371398,0 0,1.371442 -1.371398,0 0,-1.371442 z m 0,2.057142 1.371398,0 0,1.371443 -1.371398,0 0,-1.371443 z m 14.399904,-4.114285 1.371443,0 0,1.371443 -1.371443,0 0,-1.371443 z m 2.057142,0 1.371442,0 0,1.371443 -1.371442,0 0,-1.371443 z m -2.057142,6.171427 1.371443,0 0,1.3714 -1.371443,0 0,-1.3714 z m 2.057142,0 1.371442,0 0,1.3714 -1.371442,0 0,-1.3714 z m 2.057142,0 1.371442,0 0,1.3714 -1.371442,0 0,-1.3714 z m 4.3e-5,-2.057142 1.371399,0 0,1.371399 -1.371399,0 0,-1.371399 z m 0,-2.057142 1.371399,0 0,1.371399 -1.371399,0 0,-1.371399 z m 0,-2.057143 1.371399,0 0,1.3714 -1.371399,0 0,-1.3714 z m -20.571373,0 1.371442,0 0,1.3714 -1.371442,0 0,-1.3714 z m 0,6.171427 1.371442,0 0,1.371357 L 1,16.771474 l 0,-1.3714 z m 10.285665,6.171384 1.371399,0 0,1.3714 -1.371399,0 0,-1.3714 z m 2.057141,0 1.371399,0 0,1.3714 -1.371399,0 0,-1.3714 z m 2.057142,0 1.371399,0 0,1.3714 -1.371399,0 0,-1.3714 z m 0,-2.057142 1.371442,0 0,1.371399 -1.371442,0 0,-1.371399 z m 0,-2.057142 1.371442,0 0,1.371399 -1.371442,0 0,-1.371399 z m 2.057142,4.114284 1.371442,0 0,1.3714 -1.371442,0 0,-1.3714 z m 2.057141,0 1.371442,0 0,1.3714 -1.371442,0 0,-1.3714 z m 2.057142,-2.057142 1.371442,0 0,1.371399 -1.371442,0 0,-1.371399 z m 0,-2.057142 1.371442,0 0,1.371399 -1.371442,0 0,-1.371399 z m -16.45709,4.114284 1.371399,0 0,1.3714 -1.371399,0 0,-1.3714 z m 2.057142,0 1.371399,0 0,1.3714 -1.371399,0 0,-1.3714 z m 2.057141,0 1.371399,0 0,1.3714 -1.371399,0 0,-1.3714 z m 0,-2.057142 1.371399,-4.3e-5 0,1.371442 -1.371399,0 0,-1.371399 z m 0,-2.057186 1.371443,0 0,1.371443 -1.371443,0 0,-1.371443 z m 2.057099,-14.399953 1.371442,0 0,1.371443 -1.371442,0 0,-1.371443 z m -2.057099,3.428585 0,-1.371443 1.371443,0 0,1.371443 -1.371443,0 z m 0,-3.428585 1.371443,0 0,1.371443 -1.371443,0 0,-1.371443 z m 4.11424,0 1.371443,0 0,1.371443 -1.371443,0 0,-1.371443 z m -4.11424,4.114285 1.371443,0 0,1.371442 -1.371443,0 0,-1.371442 z m 6.171425,0 1.371399,0 0,1.371442 -1.371399,0 0,-1.371442 z m 0,-2.057143 1.371399,0 0,1.3714 -1.371399,0 0,-1.3714 z m 0,-2.057142 1.371399,0 0,1.371399 -1.371399,0 0,-1.371399 z m -8.228566,0 1.371442,0 0,1.371399 -1.371442,0 0,-1.371399 z m -4.114283,2.057142 1.371442,0 0,1.3714 -1.371442,0 0,-1.3714 z m 0,2.057143 1.371442,0 0,1.371399 -1.371442,0 0,-1.371399 z m 14.399991,-4.114285 1.371399,0 0,1.371399 -1.371399,0 0,-1.371399 z m 4.114283,4.114285 1.371442,-4.4e-5 0,1.371443 -1.371442,0 0,-1.371399 z m 2.057142,8.228526 1.371442,0 0,1.371443 -1.371442,0 0,-1.371443 z M 15.399991,1 l 1.371443,0 0,1.371434 -1.371443,0 0,-1.371434 z m 0,22.628557 1.371443,0 0,1.371443 -1.371443,0 0,-1.371443 z M 9.228566,1 l 1.371443,0 0,1.371434 -1.371443,0 0,-1.371434 z m 0,22.628557 1.371443,0 0,1.371443 -1.371443,0 0,-1.371443 z m -6.171424,-4.114284 1.371442,0 0,1.371442 -1.371442,0 0,-1.371442 z m 0,-2.057143 1.371442,0 0,1.371443 -1.371442,0 0,-1.371443 z m 20.571416,-8.228569 1.371442,0 0,1.371442 -1.371442,0 0,-1.371442 z"
     id="path4"
     inkscape:connector-curvature="0"
     style="fill:#000000;fill-opacity:1;stroke-width:0.2;stroke-linejoin:round" /></svg>