<?xml version="1.0" encoding="UTF-8" standalone="no"?>
<svg
   xmlns:dc="http://purl.org/dc/elements/1.1/"
   xmlns:cc="http://creativecommons.org/ns#"
   xmlns:rdf="http://www.w3.org/1999/02/22-rdf-syntax-ns#"
   xmlns:svg="http://www.w3.org/2000/svg"
   xmlns="http://www.w3.org/2000/svg"
   xmlns:sodipodi="http://sodipodi.sourceforge.net/DTD/sodipodi-0.dtd"
   xmlns:inkscape="http://www.inkscape.org/namespaces/inkscape"
   version="1.1"
   width="20"
   height="20"
   viewBox="0 0 20 20"
   enable-background="new 0 0 76.00 76.00"
   xml:space="preserve"
   id="svg2"
   inkscape:version="0.91 r13725"
   sodipodi:docname="appbar.draw.marker.svg"><metadata
     id="metadata10"><rdf:RDF><cc:Work
         rdf:about=""><dc:format>image/svg+xml</dc:format><dc:type
           rdf:resource="http://purl.org/dc/dcmitype/StillImage" /><dc:title></dc:title></cc:Work></rdf:RDF></metadata><defs
     id="defs8" /><sodipodi:namedview
     pagecolor="#ffffff"
     bordercolor="#666666"
     borderopacity="1"
     objecttolerance="10"
     gridtolerance="10"
     guidetolerance="10"
     inkscape:pageopacity="0"
     inkscape:pageshadow="2"
     inkscape:window-width="1440"
     inkscape:window-height="851"
     id="namedview6"
     showgrid="false"
     inkscape:zoom="8.3842106"
     inkscape:cx="-22.625863"
     inkscape:cy="37.355932"
     inkscape:window-x="0"
     inkscape:window-y="11"
     inkscape:window-maximized="1"
     inkscape:current-layer="svg2" /><path
     d="m 1.6615827,18.421845 10.9673023,0 -1.218563,-1.141208 -7.9208552,0 L 5.9266705,16.139429 3.4894668,13.857048 2.270903,16.42474 c 0,0 -2.4372044,1.997105 -0.6093203,1.997105 z m 6.092933,-2.853002 -3.6557676,-3.423589 0,1.141207 2.4372043,2.282382 1.2185633,0 z M 4.860379,12.002616 7.9068652,14.855618 c 0.6092819,0.570587 2.2848548,-0.99857 2.2848548,-0.99857 L 5.9266322,9.862873 C 4.0987481,11.574668 4.860379,12.002616 4.860379,12.002616 Z m 5.940623,1.283845 8.217202,-8.7598462 C 18.072362,3.368324 16.916023,2.3688165 15.602717,1.5781547 l -9.0667646,7.714132 4.2650496,3.9941743 z"
     id="path4"
     inkscape:connector-curvature="0"
     style="fill:#000000;fill-opacity:1;stroke-width:0.2;stroke-linejoin:round" /></svg>