<?xml version="1.0" encoding="UTF-8" standalone="no"?>
<svg
   xmlns:dc="http://purl.org/dc/elements/1.1/"
   xmlns:cc="http://creativecommons.org/ns#"
   xmlns:rdf="http://www.w3.org/1999/02/22-rdf-syntax-ns#"
   xmlns:svg="http://www.w3.org/2000/svg"
   xmlns="http://www.w3.org/2000/svg"
   xmlns:sodipodi="http://sodipodi.sourceforge.net/DTD/sodipodi-0.dtd"
   xmlns:inkscape="http://www.inkscape.org/namespaces/inkscape"
   version="1.1"
   width="20"
   height="20"
   viewBox="0 0 20 20"
   enable-background="new 0 0 76.00 76.00"
   xml:space="preserve"
   id="svg2"
   inkscape:version="0.91 r13725"
   sodipodi:docname="appbar.map.gps.svg"><metadata
     id="metadata10"><rdf:RDF><cc:Work
         rdf:about=""><dc:format>image/svg+xml</dc:format><dc:type
           rdf:resource="http://purl.org/dc/dcmitype/StillImage" /><dc:title></dc:title></cc:Work></rdf:RDF></metadata><defs
     id="defs8" /><sodipodi:namedview
     pagecolor="#ffffff"
     bordercolor="#666666"
     borderopacity="1"
     objecttolerance="10"
     gridtolerance="10"
     guidetolerance="10"
     inkscape:pageopacity="0"
     inkscape:pageshadow="2"
     inkscape:window-width="1440"
     inkscape:window-height="871"
     id="namedview6"
     showgrid="false"
     inkscape:zoom="8.623077"
     inkscape:cx="-8.5602141"
     inkscape:cy="37.355932"
     inkscape:window-x="1440"
     inkscape:window-y="0"
     inkscape:window-maximized="1"
     inkscape:current-layer="svg2" /><path
     d="m 13.982042,13.401174 c 0.831786,0 1.506109,0.639562 1.506109,1.428472 0,0.78891 -0.674323,1.428473 -1.506109,1.428473 -0.831787,0 -1.506109,-0.639563 -1.506109,-1.428473 0,-0.78891 0.674322,-1.428472 1.506109,-1.428472 z m 0,-0.714237 c -1.247699,0 -2.259163,0.959327 -2.259163,2.142709 0,1.183383 1.011464,2.14271 2.259163,2.14271 1.247698,0 2.259163,-0.959327 2.259163,-2.14271 0,-1.183382 -1.011465,-2.142709 -2.259163,-2.142709 z m 0,-1.071355 c 1.871528,0 3.388744,1.438972 3.388744,3.214064 0,1.775093 -1.517216,3.214065 -3.388744,3.214065 -1.871566,0 -3.388745,-1.438972 -3.388745,-3.214065 0,-1.775092 1.517179,-3.214064 3.388745,-3.214064 z m -8.0169033,-6.8745258 4.1732013,1.130886 3.577007,-2.2617728 5.161548,1.2201661 0,9.6421925 -1.190956,-0.288408 C 17.535667,13.403352 17.117684,12.711221 16.52552,12.196399 l 0.845266,0.222699 0,-6.1602893 -3.388744,-0.8927961 0,5.8924514 -0.376528,0.01764 0,-5.9100929 -3.388744,2.1427062 0,6.2495697 0.222377,-0.140598 c -0.143947,0.378403 -0.222377,0.786482 -0.222377,1.211952 0,0.195559 0.01657,0.387438 0.04846,0.574497 l -0.126891,0.08021 -4.1732013,-1.130851 -4.4084928,1.72606 0,-9.6421936 4.4084928,-1.6963113 z m -0.2666943,8.0351608 0,-6.16029 -2.6356895,0.9820748 0,6.1602902 2.6356895,-0.982075 z m 0.3765278,-6.2495701 0,6.1602901 3.7652712,0.892796 0,-5.9817312 -3.7652712,-1.0713549 z"
     id="path4"
     inkscape:connector-curvature="0"
     style="fill:#000000;fill-opacity:1;stroke-width:0.2;stroke-linejoin:round" /></svg>