<?xml version="1.0" encoding="UTF-8" standalone="no"?>
<svg
   xmlns:dc="http://purl.org/dc/elements/1.1/"
   xmlns:cc="http://creativecommons.org/ns#"
   xmlns:rdf="http://www.w3.org/1999/02/22-rdf-syntax-ns#"
   xmlns:svg="http://www.w3.org/2000/svg"
   xmlns="http://www.w3.org/2000/svg"
   xmlns:sodipodi="http://sodipodi.sourceforge.net/DTD/sodipodi-0.dtd"
   xmlns:inkscape="http://www.inkscape.org/namespaces/inkscape"
   version="1.1"
   width="26"
   height="26"
   viewBox="0 0 26 26"
   enable-background="new 0 0 76.00 76.00"
   xml:space="preserve"
   id="svg2"
   inkscape:version="0.48.4 r9939"
   sodipodi:docname="appbar.magnify.add.svg"><metadata
     id="metadata10"><rdf:RDF><cc:Work
         rdf:about=""><dc:format>image/svg+xml</dc:format><dc:type
           rdf:resource="http://purl.org/dc/dcmitype/StillImage" /></cc:Work></rdf:RDF></metadata><defs
     id="defs8" /><sodipodi:namedview
     pagecolor="#ffffff"
     bordercolor="#666666"
     borderopacity="1"
     objecttolerance="10"
     gridtolerance="10"
     guidetolerance="10"
     inkscape:pageopacity="0"
     inkscape:pageshadow="2"
     inkscape:window-width="1873"
     inkscape:window-height="1056"
     id="namedview6"
     showgrid="false"
     inkscape:zoom="3.1052632"
     inkscape:cx="-6.7627119"
     inkscape:cy="38"
     inkscape:window-x="47"
     inkscape:window-y="24"
     inkscape:window-maximized="1"
     inkscape:current-layer="svg2" /><path
     d="m 15.94925,1.0000001 c 4.998621,0 9.05075,4.05213 9.05075,9.0507499 0,4.99862 -4.052129,9.050749 -9.05075,9.050749 -1.711967,0 -3.312937,-0.475345 -4.70639,-1.272462 l -6.5347137,6.534785 c -0.8483087,0.848237 -2.2236606,0.848237 -3.0719694,0 -0.84823618,-0.848308 -0.84823618,-2.22366 0,-3.071968 l 6.5635313,-6.562952 c -0.825863,-1.365216 -1.301208,-2.966185 -1.301208,-4.678152 0,-4.9986199 4.0521288,-9.0507499 9.0507498,-9.0507499 z m 0,2.89624 c -3.399027,0 -6.1545098,2.755482 -6.1545098,6.1545099 0,3.399027 2.7554828,6.15451 6.1545098,6.15451 3.399027,0 6.15451,-2.755483 6.15451,-6.15451 0,-3.3990279 -2.755483,-6.1545099 -6.15451,-6.1545099 z m -1.08609,2.17218 2.17218,0 0,2.89624 2.89624,0 0,2.1721799 -2.89624,0 0,2.89624 -2.17218,0 0,-2.89624 -2.89624,0 0,-2.1721799 2.89624,0 0,-2.89624 z"
     id="path4"
     inkscape:connector-curvature="0"
     style="fill:#000000;fill-opacity:1;stroke-width:0.2;stroke-linejoin:round" /></svg>