<?xml version="1.0" encoding="UTF-8" standalone="no"?>
<svg
   xmlns:dc="http://purl.org/dc/elements/1.1/"
   xmlns:cc="http://creativecommons.org/ns#"
   xmlns:rdf="http://www.w3.org/1999/02/22-rdf-syntax-ns#"
   xmlns:svg="http://www.w3.org/2000/svg"
   xmlns="http://www.w3.org/2000/svg"
   xmlns:sodipodi="http://sodipodi.sourceforge.net/DTD/sodipodi-0.dtd"
   xmlns:inkscape="http://www.inkscape.org/namespaces/inkscape"
   version="1.1"
   width="26"
   height="26"
   viewBox="0 0 26 26"
   enable-background="new 0 0 76.00 76.00"
   xml:space="preserve"
   id="svg2"
   inkscape:version="0.48.4 r9939"
   sodipodi:docname="appbar.map.location.add.svg"><metadata
     id="metadata10"><rdf:RDF><cc:Work
         rdf:about=""><dc:format>image/svg+xml</dc:format><dc:type
           rdf:resource="http://purl.org/dc/dcmitype/StillImage" /></cc:Work></rdf:RDF></metadata><defs
     id="defs8" /><sodipodi:namedview
     pagecolor="#ffffff"
     bordercolor="#666666"
     borderopacity="1"
     objecttolerance="10"
     gridtolerance="10"
     guidetolerance="10"
     inkscape:pageopacity="0"
     inkscape:pageshadow="2"
     inkscape:window-width="1873"
     inkscape:window-height="1056"
     id="namedview6"
     showgrid="false"
     inkscape:zoom="3.1052632"
     inkscape:cx="-6.7627119"
     inkscape:cy="38"
     inkscape:window-x="47"
     inkscape:window-y="24"
     inkscape:window-maximized="1"
     inkscape:current-layer="svg2" /><path
     d="m 15.086957,11.311349 6.260869,0 0,5.344326 L 15.086957,22 l 0,-10.688651 z m 1.043478,2.226802 0,0.890721 1.565217,0 0,1.336082 1.043478,0 0,-1.336082 1.565218,0 0,-0.890721 -1.565218,4.5e-5 0,-1.336126 -1.043478,0 0,1.336081 -1.565217,0 z M 7.108678,5.410323 12.891322,6.820646 17.847843,4 25,5.521663 l 0,12.024732 -3.130435,-0.682247 0,-2.126017 1.043478,0.247442 0,-7.682468 -4.695652,-1.113401 0,4.676285 -0.521739,0 0,-4.676285 L 13,8.861867 l 0,7.793808 1.565217,-0.890721 0,2.0907 -1.673895,0.952581 L 7.108678,17.397957 1,19.550517 1,7.525785 7.108678,5.410323 z m -0.369548,10.02061 0,-7.682468 -3.652173,1.224742 0,7.682468 3.652173,-1.224742 z m 0.52174,-7.793808 0,7.682468 5.217391,1.113401 0,-7.459787 L 7.26087,7.637125 z"
     id="path4"
     inkscape:connector-curvature="0"
     style="fill:#000000;fill-opacity:1;stroke-width:0.2;stroke-linejoin:round" /></svg>