<?xml version="1.0" encoding="UTF-8" standalone="no"?>
<svg
   xmlns:dc="http://purl.org/dc/elements/1.1/"
   xmlns:cc="http://creativecommons.org/ns#"
   xmlns:rdf="http://www.w3.org/1999/02/22-rdf-syntax-ns#"
   xmlns:svg="http://www.w3.org/2000/svg"
   xmlns="http://www.w3.org/2000/svg"
   xmlns:sodipodi="http://sodipodi.sourceforge.net/DTD/sodipodi-0.dtd"
   xmlns:inkscape="http://www.inkscape.org/namespaces/inkscape"
   version="1.1"
   width="26"
   height="26"
   viewBox="0 0 26 26"
   enable-background="new 0 0 76.00 76.00"
   xml:space="preserve"
   id="svg2"
   inkscape:version="0.48.4 r9939"
   sodipodi:docname="appbar.cog.svg"><metadata
     id="metadata10"><rdf:RDF><cc:Work
         rdf:about=""><dc:format>image/svg+xml</dc:format><dc:type
           rdf:resource="http://purl.org/dc/dcmitype/StillImage" /></cc:Work></rdf:RDF></metadata><defs
     id="defs8" /><sodipodi:namedview
     pagecolor="#ffffff"
     bordercolor="#666666"
     borderopacity="1"
     objecttolerance="10"
     gridtolerance="10"
     guidetolerance="10"
     inkscape:pageopacity="0"
     inkscape:pageshadow="2"
     inkscape:window-width="1873"
     inkscape:window-height="1056"
     id="namedview6"
     showgrid="false"
     inkscape:zoom="3.1052632"
     inkscape:cx="-6.7627119"
     inkscape:cy="38"
     inkscape:window-x="47"
     inkscape:window-y="24"
     inkscape:window-maximized="1"
     inkscape:current-layer="svg2" /><path
     d="M 6.322565,2.706893 9.818768,1.15028 10.934373,3.655953 c 1.216832,-0.270322 2.451143,-0.293667 3.639082,-0.09447 l 0.983251,-2.561485 3.572935,1.371509 -0.983251,2.561485 c 1.016037,0.646845 1.917643,1.490085 2.641034,2.505162 l 2.505678,-1.115602 1.556681,3.496256 -2.505679,1.115603 c 0.270322,1.21683 0.293667,2.451073 0.09447,3.639072 l 2.561428,0.983248 -1.371513,3.572863 -2.561427,-0.983185 c -0.646846,1.016098 -1.49009,1.917701 -2.505169,2.641089 l 1.115542,2.505673 -3.496203,1.556613 -1.115605,-2.505673 c -1.216832,0.270322 -2.45108,0.293667 -3.639019,0.09447 l -0.98325,2.561421 -3.572936,-1.371509 0.983251,-2.561421 C 6.837573,20.420227 5.935902,19.576987 5.212513,18.561846 L 2.706835,19.677448 1.150217,16.181192 3.655896,15.065589 C 3.385574,13.848823 3.362229,12.61458 3.561426,11.426581 L 0.999998,10.443397 2.371511,6.87047 4.932938,7.853719 C 5.579784,6.837621 6.423028,5.935954 7.438172,5.212566 L 6.322565,2.706893 z m 4.342507,5.048788 c -2.896428,1.289545 -4.19899,4.682916 -2.909442,7.579273 1.28955,2.896421 4.68293,4.198978 7.579294,2.909433 2.896428,-1.289545 4.19899,-4.682916 2.909442,-7.579273 -1.28955,-2.896421 -4.68293,-4.198978 -7.579294,-2.909433 z"
     id="path4"
     inkscape:connector-curvature="0"
     style="fill:#000000;fill-opacity:1;stroke-width:0.2;stroke-linejoin:round" /></svg>