<?xml version="1.0" encoding="UTF-8" standalone="no"?>
<svg
   xmlns:dc="http://purl.org/dc/elements/1.1/"
   xmlns:cc="http://creativecommons.org/ns#"
   xmlns:rdf="http://www.w3.org/1999/02/22-rdf-syntax-ns#"
   xmlns:svg="http://www.w3.org/2000/svg"
   xmlns="http://www.w3.org/2000/svg"
   xmlns:sodipodi="http://sodipodi.sourceforge.net/DTD/sodipodi-0.dtd"
   xmlns:inkscape="http://www.inkscape.org/namespaces/inkscape"
   version="1.1"
   width="26"
   height="26"
   viewBox="0 0 26 26"
   enable-background="new 0 0 76.00 76.00"
   xml:space="preserve"
   id="svg2"
   inkscape:version="0.48.4 r9939"
   sodipodi:docname="appbar.printer.text.svg"><metadata
     id="metadata10"><rdf:RDF><cc:Work
         rdf:about=""><dc:format>image/svg+xml</dc:format><dc:type
           rdf:resource="http://purl.org/dc/dcmitype/StillImage" /></cc:Work></rdf:RDF></metadata><defs
     id="defs8" /><sodipodi:namedview
     pagecolor="#ffffff"
     bordercolor="#666666"
     borderopacity="1"
     objecttolerance="10"
     gridtolerance="10"
     guidetolerance="10"
     inkscape:pageopacity="0"
     inkscape:pageshadow="2"
     inkscape:window-width="1873"
     inkscape:window-height="1056"
     id="namedview6"
     showgrid="false"
     inkscape:zoom="3.1052632"
     inkscape:cx="-6.7627119"
     inkscape:cy="38"
     inkscape:window-x="47"
     inkscape:window-y="24"
     inkscape:window-maximized="1"
     inkscape:current-layer="svg2" /><path
     d="m 6.204545,6.333333 0,-5.333333 13.59091,0 0,5.333333 -2.09091,0 0,-3.2 -9.40909,0 0,3.2 -2.09091,0 z M 1.5,6.866667 l 23,0 0,12.266666 -4.181818,0 0,-2.666666 1.568182,0 0,-6.933334 -17.772728,0 0,6.933334 1.568182,0 0,2.666666 -4.181818,0 0,-12.266666 z m 4.704545,5.866666 1.568182,0 0,6.933334 3.659091,0 0,3.733333 6.795455,0 0,-10.666667 1.568182,0 0,12.266667 -9.409091,0 -4.181819,-4.266667 0,-8 z m 10.977273,8.533334 -4.181818,0 0,-1.6 4.181818,0 0,1.6 z m 0,-3.2 -8.363636,0 0,-1.6 8.363636,0 0,1.6 z m 0,-3.2 -8.363636,0 0,-1.6 8.363636,0 0,1.6 z"
     id="path4"
     inkscape:connector-curvature="0"
     style="fill:#000000;fill-opacity:1;stroke-width:0.2;stroke-linejoin:round" /></svg>