<?xml version="1.0" encoding="UTF-8" standalone="no"?>
<svg
   xmlns:dc="http://purl.org/dc/elements/1.1/"
   xmlns:cc="http://creativecommons.org/ns#"
   xmlns:rdf="http://www.w3.org/1999/02/22-rdf-syntax-ns#"
   xmlns:svg="http://www.w3.org/2000/svg"
   xmlns="http://www.w3.org/2000/svg"
   xmlns:sodipodi="http://sodipodi.sourceforge.net/DTD/sodipodi-0.dtd"
   xmlns:inkscape="http://www.inkscape.org/namespaces/inkscape"
   version="1.1"
   width="20"
   height="20"
   viewBox="0 0 20 20"
   enable-background="new 0 0 76.00 76.00"
   xml:space="preserve"
   id="svg2"
   inkscape:version="0.91 r13725"
   sodipodi:docname="appbar.question.svg"><metadata
     id="metadata10"><rdf:RDF><cc:Work
         rdf:about=""><dc:format>image/svg+xml</dc:format><dc:type
           rdf:resource="http://purl.org/dc/dcmitype/StillImage" /><dc:title></dc:title></cc:Work></rdf:RDF></metadata><defs
     id="defs8" /><sodipodi:namedview
     pagecolor="#ffffff"
     bordercolor="#666666"
     borderopacity="1"
     objecttolerance="10"
     gridtolerance="10"
     guidetolerance="10"
     inkscape:pageopacity="0"
     inkscape:pageshadow="2"
     inkscape:window-width="1440"
     inkscape:window-height="851"
     id="namedview6"
     showgrid="false"
     inkscape:zoom="8.3842106"
     inkscape:cx="-22.625863"
     inkscape:cy="37.355932"
     inkscape:window-x="0"
     inkscape:window-y="11"
     inkscape:window-maximized="1"
     inkscape:current-layer="svg2" /><path
     d="m 9.6705965,15.421129 c 0.9096725,0 1.6470805,0.80904 1.6470805,1.80708 0,0.997994 -0.737408,1.807035 -1.6470805,1.807035 -0.90963,0 -1.6470377,-0.809041 -1.6470377,-1.807035 0,-0.99804 0.7374077,-1.80708 1.6470377,-1.80708 z M 10.000022,0.96475648 c 2.91085,0 5.270537,2.06569832 5.270537,5.05972502 0,1.0842308 -0.658807,2.8912652 -1.976421,3.6141163 -1.317655,0.7228052 -1.976462,1.6936822 -1.976462,2.8912652 l 0,1.445656 -3.2941172,0 0,-1.084231 c 0,-2.458166 1.9764622,-3.9755413 2.6352692,-4.6983458 1.317656,-1.4456555 1.317656,-1.646204 1.317656,-2.1684607 0,-1.1975831 -0.884914,-2.1684599 -1.976462,-2.1684599 -1.0915905,0 -1.9764632,0.9708768 -1.9764632,2.1684599 l 0,1.0842308 -3.2941173,0 0,-0.7228052 c 0,-2.9940275 2.3597293,-5.42115062 5.2705805,-5.42115062 z"
     id="path4"
     inkscape:connector-curvature="0"
     style="fill:#000000;fill-opacity:1;stroke-width:0.2;stroke-linejoin:round" /></svg>