<?xml version="1.0" encoding="UTF-8" standalone="no"?>
<svg
   xmlns:dc="http://purl.org/dc/elements/1.1/"
   xmlns:cc="http://creativecommons.org/ns#"
   xmlns:rdf="http://www.w3.org/1999/02/22-rdf-syntax-ns#"
   xmlns:svg="http://www.w3.org/2000/svg"
   xmlns="http://www.w3.org/2000/svg"
   xmlns:sodipodi="http://sodipodi.sourceforge.net/DTD/sodipodi-0.dtd"
   xmlns:inkscape="http://www.inkscape.org/namespaces/inkscape"
   version="1.1"
   width="20"
   height="20"
   viewBox="0 0 20 20"
   enable-background="new 0 0 76.00 76.00"
   xml:space="preserve"
   id="svg2"
   inkscape:version="0.91 r13725"
   sodipodi:docname="appbar.printer.text.svg"><metadata
     id="metadata10"><rdf:RDF><cc:Work
         rdf:about=""><dc:format>image/svg+xml</dc:format><dc:type
           rdf:resource="http://purl.org/dc/dcmitype/StillImage" /><dc:title></dc:title></cc:Work></rdf:RDF></metadata><defs
     id="defs8" /><sodipodi:namedview
     pagecolor="#ffffff"
     bordercolor="#666666"
     borderopacity="1"
     objecttolerance="10"
     gridtolerance="10"
     guidetolerance="10"
     inkscape:pageopacity="0"
     inkscape:pageshadow="2"
     inkscape:window-width="1440"
     inkscape:window-height="851"
     id="namedview6"
     showgrid="false"
     inkscape:zoom="8.3842106"
     inkscape:cx="-22.625863"
     inkscape:cy="37.355932"
     inkscape:window-x="0"
     inkscape:window-y="11"
     inkscape:window-maximized="1"
     inkscape:current-layer="svg2" /><path
     d="m 4.8255573,4.9236239 0,-4.0611004 10.3488857,0 0,4.0611004 -1.592137,0 0,-2.4366604 -7.164612,0 0,2.4366604 -1.5921367,0 z m -3.5823058,0.4061106 17.5134965,0 0,9.3405305 -3.184271,0 0,-2.03055 1.194102,0 0,-5.2794307 -13.5331577,0 0,5.2794307 1.1941022,0 0,2.03055 -3.184272,0 0,-9.3405305 z m 3.5823058,4.4672102 1.1941022,0 0,5.2794313 2.7862381,0 0,2.84277 5.1744434,0 0,-8.1222013 1.194102,0 0,9.3405313 -7.164613,0 -3.1842727,-3.248881 0,-6.0916503 z m 8.3587137,6.4977613 -3.1842715,0 0,-1.21833 3.1842715,0 0,1.21833 z m 0,-2.436661 -6.3685432,0 0,-1.21833 6.3685432,0 0,1.21833 z m 0,-2.43666 -6.3685432,0 0,-1.21833 6.3685432,0 0,1.21833 z"
     id="path4"
     inkscape:connector-curvature="0"
     style="fill:#000000;fill-opacity:1;stroke-width:0.2;stroke-linejoin:round" /></svg>