<?xml version="1.0" encoding="UTF-8" standalone="no"?>
<svg
   xmlns:dc="http://purl.org/dc/elements/1.1/"
   xmlns:cc="http://creativecommons.org/ns#"
   xmlns:rdf="http://www.w3.org/1999/02/22-rdf-syntax-ns#"
   xmlns:svg="http://www.w3.org/2000/svg"
   xmlns="http://www.w3.org/2000/svg"
   xmlns:sodipodi="http://sodipodi.sourceforge.net/DTD/sodipodi-0.dtd"
   xmlns:inkscape="http://www.inkscape.org/namespaces/inkscape"
   version="1.1"
   width="26"
   height="26"
   viewBox="0 0 26 26"
   enable-background="new 0 0 76.00 76.00"
   xml:space="preserve"
   id="svg2"
   inkscape:version="0.48.4 r9939"
   sodipodi:docname="appbar.magnify.minus.svg"><metadata
     id="metadata10"><rdf:RDF><cc:Work
         rdf:about=""><dc:format>image/svg+xml</dc:format><dc:type
           rdf:resource="http://purl.org/dc/dcmitype/StillImage" /></cc:Work></rdf:RDF></metadata><defs
     id="defs8" /><sodipodi:namedview
     pagecolor="#ffffff"
     bordercolor="#666666"
     borderopacity="1"
     objecttolerance="10"
     gridtolerance="10"
     guidetolerance="10"
     inkscape:pageopacity="0"
     inkscape:pageshadow="2"
     inkscape:window-width="1873"
     inkscape:window-height="1056"
     id="namedview6"
     showgrid="false"
     inkscape:zoom="3.1052632"
     inkscape:cx="-6.7627119"
     inkscape:cy="38"
     inkscape:window-x="47"
     inkscape:window-y="24"
     inkscape:window-maximized="1"
     inkscape:current-layer="svg2" /><path
     d="M 15.94925,1 C 20.947871,1 25,5.052129 25,10.05075 c 0,4.99862 -4.052129,9.05075 -9.05075,9.05075 -1.711967,0 -3.312936,-0.475346 -4.70639,-1.272463 l -6.534713,6.534786 c -0.848309,0.848236 -2.223661,0.848236 -3.07197,0 -0.848236,-0.848309 -0.848236,-2.223661 0,-3.07197 L 8.199709,14.728901 C 7.373846,13.363686 6.8985,11.762717 6.8985,10.05075 6.8985,5.052129 10.95063,1 15.94925,1 z m 0,2.89624 c -3.399027,0 -6.15451,2.755483 -6.15451,6.15451 0,3.399027 2.755483,6.15451 6.15451,6.15451 3.399027,0 6.15451,-2.755483 6.15451,-6.15451 0,-3.399027 -2.755483,-6.15451 -6.15451,-6.15451 z m 3.98233,5.06842 0,2.17218 -7.96466,0 0,-2.17218 7.96466,0 z"
     id="path4"
     inkscape:connector-curvature="0"
     style="fill:#000000;fill-opacity:1;stroke-width:0.2;stroke-linejoin:round" /></svg>