<?xml version="1.0" encoding="UTF-8" standalone="no"?>
<svg
   xmlns:dc="http://purl.org/dc/elements/1.1/"
   xmlns:cc="http://creativecommons.org/ns#"
   xmlns:rdf="http://www.w3.org/1999/02/22-rdf-syntax-ns#"
   xmlns:svg="http://www.w3.org/2000/svg"
   xmlns="http://www.w3.org/2000/svg"
   xmlns:sodipodi="http://sodipodi.sourceforge.net/DTD/sodipodi-0.dtd"
   xmlns:inkscape="http://www.inkscape.org/namespaces/inkscape"
   version="1.1"
   width="26"
   height="26"
   viewBox="0 0 26 26"
   enable-background="new 0 0 76.00 76.00"
   xml:space="preserve"
   id="svg2"
   inkscape:version="0.48.4 r9939"
   sodipodi:docname="appbar.globe.svg"><metadata
     id="metadata10"><rdf:RDF><cc:Work
         rdf:about=""><dc:format>image/svg+xml</dc:format><dc:type
           rdf:resource="http://purl.org/dc/dcmitype/StillImage" /></cc:Work></rdf:RDF></metadata><defs
     id="defs8" /><sodipodi:namedview
     pagecolor="#ffffff"
     bordercolor="#666666"
     borderopacity="1"
     objecttolerance="10"
     gridtolerance="10"
     guidetolerance="10"
     inkscape:pageopacity="0"
     inkscape:pageshadow="2"
     inkscape:window-width="1873"
     inkscape:window-height="1056"
     id="namedview6"
     showgrid="false"
     inkscape:zoom="3.1052632"
     inkscape:cx="-6.7627119"
     inkscape:cy="38"
     inkscape:window-x="47"
     inkscape:window-y="24"
     inkscape:window-maximized="1"
     inkscape:current-layer="svg2" /><path
     d="M 13,1 C 19.627401,1 25,6.372599 25,13 25,19.627401 19.627401,25 13,25 6.372599,25 1,19.627401 1,13 1,6.372599 6.372599,1 13,1 z m 0,1.714301 c -0.520294,0 -1.031601,0.03865 -1.531162,0.113197 -0.106917,0.232836 -0.183139,0.488408 -0.183139,0.743927 0,0.857177 -0.857124,-0.857124 -1.714247,0.857177 -0.857178,1.714247 0,0 0,1.714247 0,0.857178 -1.24051,0.23695 -0.857178,0.428589 0.857178,0.428589 0.857178,0.428589 0,1.285713 0,0 -1.714247,-0.857124 -1.714247,0 0,0.857123 -0.857178,0.857123 -1.714301,0.857123 -0.857124,0 0,1.714301 -0.857124,1.714301 -0.659042,0 -0.304673,-1.013466 -0.88484,-1.481898 -0.220547,0.513852 -0.400439,1.049249 -0.535615,1.602187 0.577678,0.517587 0.674417,2.562276 1.420455,3.308314 0.857124,-0.857178 0.857124,0 1.714247,0 0.857178,0 0.857178,0 1.285713,0.857123 0.857177,0 1.285712,0.857124 2.14289,1.714247 0.857123,0.857178 2.57137,0.857178 2.57137,1.714301 0,0.857124 -0.857123,0 -0.857123,1.714302 0,0.857123 0,0.857123 -0.857124,0.857123 -0.539674,0 -1.079403,1.019421 -1.405134,1.774554 1.223348,0.513256 2.566823,0.796871 3.976559,0.796871 2.878859,0 5.481465,-1.182693 7.348428,-3.088741 l -0.491332,-0.982664 c 0,0 1.071445,-1.714301 0.214322,-2.571424 -0.857178,-0.857124 -0.857178,-1.714301 -0.857178,-1.714301 0,0 -1.714247,1.714301 -2.571424,0.857123 -0.857124,-0.857123 -0.857124,0 -1.714247,-1.714247 -0.857178,-1.714301 0.857123,-2.571425 0.857123,-2.571425 0,0 0,-1.714301 0.857124,-1.714301 0.857177,0 1.714301,-1.714247 3.428602,0 0,0 0.990621,-0.660396 2.392183,-0.821827 -0.439633,-1.029436 -1.042266,-1.972581 -1.775528,-2.797007 -0.153961,0.110707 -0.355452,0.190286 -0.616655,0.190286 -0.857178,0 0.857123,1.714301 0,1.714301 -0.857178,0 -0.857178,-0.857178 -1.714301,-0.857178 -0.857124,0 -0.857124,0.857178 -1.714301,1.714302 -0.857124,0.857123 0,0 -0.857124,-0.857124 -0.857123,-0.857178 1.714301,0 0.857124,-0.857178 -0.857124,-0.857123 0.857177,-0.857123 0.857177,-1.714247 0,-0.672305 1.054555,-0.81728 1.509454,-0.84857 -0.494688,-0.356697 -1.022291,-0.670519 -1.509454,-0.865731 0.857124,0.857124 -0.857177,1.714301 -1.714301,1.714301 -0.805154,0 -0.09771,-1.512593 -0.0089,-2.406528 C 14.893489,2.846445 13.962146,2.714301 13,2.714301 z M 2.714301,13 c 0,3.025349 1.306122,5.745591 3.38524,7.627658 L 5.285726,18.999973 c -0.857124,0 -1.285712,-1.928514 -1.285712,-2.785692 0,-0.687843 -0.276036,-1.237694 0.05798,-1.871077 C 2.848665,13.128625 3.571425,13.787127 3.571425,13 3.571425,12.591983 3.18295,12.183911 2.775853,11.868357 2.735143,12.239995 2.714303,12.617534 2.714303,13 z"
     id="path4"
     inkscape:connector-curvature="0"
     style="fill:#000000;fill-opacity:1;stroke-width:0.2;stroke-linejoin:round" /></svg>