<?xml version="1.0" encoding="UTF-8" standalone="no"?>
<svg
   xmlns:dc="http://purl.org/dc/elements/1.1/"
   xmlns:cc="http://creativecommons.org/ns#"
   xmlns:rdf="http://www.w3.org/1999/02/22-rdf-syntax-ns#"
   xmlns:svg="http://www.w3.org/2000/svg"
   xmlns="http://www.w3.org/2000/svg"
   xmlns:sodipodi="http://sodipodi.sourceforge.net/DTD/sodipodi-0.dtd"
   xmlns:inkscape="http://www.inkscape.org/namespaces/inkscape"
   version="1.1"
   width="20"
   height="20"
   viewBox="0 0 20 20"
   enable-background="new 0 0 76.00 76.00"
   xml:space="preserve"
   id="svg2"
   inkscape:version="0.91 r13725"
   sodipodi:docname="appbar.map.location.add.svg"><metadata
     id="metadata10"><rdf:RDF><cc:Work
         rdf:about=""><dc:format>image/svg+xml</dc:format><dc:type
           rdf:resource="http://purl.org/dc/dcmitype/StillImage" /><dc:title></dc:title></cc:Work></rdf:RDF></metadata><defs
     id="defs8" /><sodipodi:namedview
     pagecolor="#ffffff"
     bordercolor="#666666"
     borderopacity="1"
     objecttolerance="10"
     gridtolerance="10"
     guidetolerance="10"
     inkscape:pageopacity="0"
     inkscape:pageshadow="2"
     inkscape:window-width="1440"
     inkscape:window-height="871"
     id="namedview6"
     showgrid="false"
     inkscape:zoom="8.623077"
     inkscape:cx="-22.186441"
     inkscape:cy="37.355932"
     inkscape:window-x="1440"
     inkscape:window-y="0"
     inkscape:window-maximized="1"
     inkscape:current-layer="svg2" /><path
     d="m 11.576026,8.7247665 4.728076,0 0,4.0359225 -4.728076,4.035921 0,-8.0718435 z m 0.788012,1.6816335 0,0.672654 1.182019,0 0,1.008981 0.788013,0 0,-1.008981 1.18202,0 0,-0.672654 -1.18202,3.4e-5 0,-1.0090138 -0.788013,0 0,1.0089798 -1.182019,0 z M 5.5509978,4.2684361 9.917929,5.3334823 l 3.74306,-2.1300924 5.401158,1.1491278 0,9.0808243 -2.364039,-0.515219 0,-1.605523 0.788013,0.186863 0,-5.8016379 -3.546057,-0.8408169 0,3.5314318 -0.394007,0 0,-3.5314318 L 10,6.8749693 l 0,5.8857197 1.182019,-0.672654 0,1.578853 -1.26409,0.719369 -4.3669312,-1.065013 -4.61314475,1.625568 0,-9.0808236 4.61314475,-1.5975523 z m -0.2790748,7.5673529 0,-5.8016374 -2.758044,0.9248993 0,5.8016381 2.758044,-0.9249 z M 5.66593,5.95007 l 0,5.801638 3.940064,0.840817 0,-5.6334741 L 5.66593,5.95007 Z"
     id="path4"
     inkscape:connector-curvature="0"
     style="fill:#000000;fill-opacity:1;stroke-width:0.2;stroke-linejoin:round" /></svg>