<?xml version="1.0" encoding="UTF-8" standalone="no"?>
<svg
   xmlns:dc="http://purl.org/dc/elements/1.1/"
   xmlns:cc="http://creativecommons.org/ns#"
   xmlns:rdf="http://www.w3.org/1999/02/22-rdf-syntax-ns#"
   xmlns:svg="http://www.w3.org/2000/svg"
   xmlns="http://www.w3.org/2000/svg"
   xmlns:sodipodi="http://sodipodi.sourceforge.net/DTD/sodipodi-0.dtd"
   xmlns:inkscape="http://www.inkscape.org/namespaces/inkscape"
   version="1.1"
   width="26"
   height="26"
   viewBox="0 0 26 26"
   enable-background="new 0 0 76.00 76.00"
   xml:space="preserve"
   id="svg2"
   inkscape:version="0.48.4 r9939"
   sodipodi:docname="appbar.protractor.svg"><metadata
     id="metadata10"><rdf:RDF><cc:Work
         rdf:about=""><dc:format>image/svg+xml</dc:format><dc:type
           rdf:resource="http://purl.org/dc/dcmitype/StillImage" /></cc:Work></rdf:RDF></metadata><defs
     id="defs8" /><sodipodi:namedview
     pagecolor="#ffffff"
     bordercolor="#666666"
     borderopacity="1"
     objecttolerance="10"
     gridtolerance="10"
     guidetolerance="10"
     inkscape:pageopacity="0"
     inkscape:pageshadow="2"
     inkscape:window-width="1873"
     inkscape:window-height="1056"
     id="namedview6"
     showgrid="false"
     inkscape:zoom="3.1052632"
     inkscape:cx="-11.59322"
     inkscape:cy="38"
     inkscape:window-x="47"
     inkscape:window-y="24"
     inkscape:window-maximized="1"
     inkscape:current-layer="svg2" /><path
     d="M 25,1 25,25 1,25 5.789264,20.210737 7.578464,22 l 0.707114,-0.707116 -1.7892,-1.7892 2.171558,-2.171621 2.609495,2.609495 0.707116,-0.707116 -2.609494,-2.609431 2.296989,-2.29699 1.67198,1.671979 0.707114,-0.707116 -1.671978,-1.671979 2.171558,-2.171558 2.492209,2.492211 0.707117,-0.707116 -2.492211,-2.49221 L 17.492295,8.507768 19.578464,10.594 20.285578,9.886884 18.199411,7.800653 20.146505,5.853558 21.828464,7.535516 22.535578,6.8284 20.853622,5.146442 25,1 z M 22.000064,12.000021 12.000084,22 l 9.99998,0 0,-9.999979 z"
     id="path4"
     inkscape:connector-curvature="0"
     style="fill:#000000;fill-opacity:1;stroke-width:0.2;stroke-linejoin:round" /></svg>