<?xml version="1.0" encoding="UTF-8" standalone="no"?>
<svg
   xmlns:dc="http://purl.org/dc/elements/1.1/"
   xmlns:cc="http://creativecommons.org/ns#"
   xmlns:rdf="http://www.w3.org/1999/02/22-rdf-syntax-ns#"
   xmlns:svg="http://www.w3.org/2000/svg"
   xmlns="http://www.w3.org/2000/svg"
   xmlns:sodipodi="http://sodipodi.sourceforge.net/DTD/sodipodi-0.dtd"
   xmlns:inkscape="http://www.inkscape.org/namespaces/inkscape"
   version="1.1"
   width="26"
   height="26"
   viewBox="0 0 26 26"
   enable-background="new 0 0 76.00 76.00"
   xml:space="preserve"
   id="svg2"
   inkscape:version="0.48.4 r9939"
   sodipodi:docname="appbar.cell.align.svg"><metadata
     id="metadata10"><rdf:RDF><cc:Work
         rdf:about=""><dc:format>image/svg+xml</dc:format><dc:type
           rdf:resource="http://purl.org/dc/dcmitype/StillImage" /></cc:Work></rdf:RDF></metadata><defs
     id="defs8" /><sodipodi:namedview
     pagecolor="#ffffff"
     bordercolor="#666666"
     borderopacity="1"
     objecttolerance="10"
     gridtolerance="10"
     guidetolerance="10"
     inkscape:pageopacity="0"
     inkscape:pageshadow="2"
     inkscape:window-width="1873"
     inkscape:window-height="1056"
     id="namedview6"
     showgrid="false"
     inkscape:zoom="3.1052632"
     inkscape:cx="-6.7627119"
     inkscape:cy="38"
     inkscape:window-x="47"
     inkscape:window-y="24"
     inkscape:window-maximized="1"
     inkscape:current-layer="svg2" /><path
     d="m 23.56,18.333333 1.44,0 0,1.333334 -1.44,0 0,1.333333 -1.44,0 0,-1.333333 -18.24,0 0,1.333333 -1.44,0 0,-1.333333 -1.44,0 0,-1.333334 1.44,0 0,-10.666666 -1.44,0 0,-1.333334 1.44,0 L 2.44,5 l 1.44,0 0,1.333333 18.24,0 0,-1.333333 1.44,0 0,1.333333 1.44,0 0,1.333334 -1.44,0 0,10.666666 z M 3.88,7.666711 l 0,10.666622 18.239952,0 0,-10.666622 -18.239952,0 z m 1.44,3.555511 6.72,0 0,1.333334 -6.72,0 0,-1.333334 z m 0,2.222222 5.76,0 0,1.333334 -5.76,0 0,-1.333334 z M 5.32,9 l 10.56,0 0,1.333333 -10.56,0 L 5.32,9 z m 0,6.666667 8.64,0 0,1.333333 -8.64,0 0,-1.333333 z"
     id="path4"
     inkscape:connector-curvature="0"
     style="fill:#000000;fill-opacity:1;stroke-width:0.2;stroke-linejoin:round" /></svg>