<?xml version="1.0" encoding="UTF-8" standalone="no"?>
<svg
   xmlns:dc="http://purl.org/dc/elements/1.1/"
   xmlns:cc="http://creativecommons.org/ns#"
   xmlns:rdf="http://www.w3.org/1999/02/22-rdf-syntax-ns#"
   xmlns:svg="http://www.w3.org/2000/svg"
   xmlns="http://www.w3.org/2000/svg"
   xmlns:sodipodi="http://sodipodi.sourceforge.net/DTD/sodipodi-0.dtd"
   xmlns:inkscape="http://www.inkscape.org/namespaces/inkscape"
   version="1.1"
   width="20"
   height="20"
   viewBox="0 0 20 20"
   enable-background="new 0 0 76.00 76.00"
   xml:space="preserve"
   id="svg2"
   inkscape:version="0.91 r13725"
   sodipodi:docname="appbar.ruler.svg"><metadata
     id="metadata10"><rdf:RDF><cc:Work
         rdf:about=""><dc:format>image/svg+xml</dc:format><dc:type
           rdf:resource="http://purl.org/dc/dcmitype/StillImage" /><dc:title></dc:title></cc:Work></rdf:RDF></metadata><defs
     id="defs8" /><sodipodi:namedview
     pagecolor="#ffffff"
     bordercolor="#666666"
     borderopacity="1"
     objecttolerance="10"
     gridtolerance="10"
     guidetolerance="10"
     inkscape:pageopacity="0"
     inkscape:pageshadow="2"
     inkscape:window-width="1440"
     inkscape:window-height="871"
     id="namedview6"
     showgrid="false"
     inkscape:zoom="8.623077"
     inkscape:cx="-22.186441"
     inkscape:cy="37.355932"
     inkscape:window-x="1440"
     inkscape:window-y="0"
     inkscape:window-maximized="1"
     inkscape:current-layer="svg2" /><path
     style="fill:#000000;fill-opacity:1;stroke-width:0.2;stroke-linejoin:round"
     inkscape:connector-curvature="0"
     id="path2987"
     d="m 1.131133,1.131226 4.4344336,0 0,4.4343988 -4.4344336,0 0,-4.4343988 z m 9.607924,-4.66e-5 1.478206,-4.66e-5 4.7e-5,2.2171992 0.739057,0 -4.7e-5,-2.2171991 1.478114,4.66e-5 4.6e-5,2.9562505 0.739057,0 0,-2.9562506 1.478113,4.66e-5 4.7e-5,2.2171525 0.739057,0 -4.7e-5,-2.2171525 1.47816,0 0,4.4343522 -12.5642437,4.66e-5 0,-4.4343988 1.47816,0 0,2.2171525 0.7390568,0 0,-2.2171525 L 10,1.1311794 l 4.7e-5,2.9562506 0.739056,0 -4.6e-5,-2.9562506 z m -9.6078774,13.3032426 -4.66e-5,-1.478149 2.2171702,-4.6e-5 0,-0.739098 -2.2171702,4.7e-5 4.66e-5,-1.478102 2.9562269,0 0,-0.7390978 -2.9562269,4.78e-5 0,-1.4781027 2.2171702,-4.65e-5 0,-0.7390509 -2.2171702,4.66e-5 0,-1.4781482 4.4344335,-4.66e-5 0,12.5641913 -4.434387,0 -4.65e-5,-1.478148 2.2172167,0 0,-0.739098 -2.2172167,4.7e-5 0,-1.478149 2.9562735,-4.7e-5 0,-0.73905 -2.9562735,0 z" /></svg>