<?xml version="1.0" encoding="UTF-8" standalone="no"?>
<svg
   xmlns:dc="http://purl.org/dc/elements/1.1/"
   xmlns:cc="http://creativecommons.org/ns#"
   xmlns:rdf="http://www.w3.org/1999/02/22-rdf-syntax-ns#"
   xmlns:svg="http://www.w3.org/2000/svg"
   xmlns="http://www.w3.org/2000/svg"
   xmlns:sodipodi="http://sodipodi.sourceforge.net/DTD/sodipodi-0.dtd"
   xmlns:inkscape="http://www.inkscape.org/namespaces/inkscape"
   version="1.1"
   width="26"
   height="26"
   viewBox="0 0 26 26"
   enable-background="new 0 0 76.00 76.00"
   xml:space="preserve"
   id="svg2"
   inkscape:version="0.48.4 r9939"
   sodipodi:docname="appbar.checkmark.pencil.svg"><metadata
     id="metadata10"><rdf:RDF><cc:Work
         rdf:about=""><dc:format>image/svg+xml</dc:format><dc:type
           rdf:resource="http://purl.org/dc/dcmitype/StillImage" /></cc:Work></rdf:RDF></metadata><defs
     id="defs8" /><sodipodi:namedview
     pagecolor="#ffffff"
     bordercolor="#666666"
     borderopacity="1"
     objecttolerance="10"
     gridtolerance="10"
     guidetolerance="10"
     inkscape:pageopacity="0"
     inkscape:pageshadow="2"
     inkscape:window-width="1873"
     inkscape:window-height="1056"
     id="namedview6"
     showgrid="false"
     inkscape:zoom="3.1052632"
     inkscape:cx="-6.7627119"
     inkscape:cy="38"
     inkscape:window-x="47"
     inkscape:window-y="24"
     inkscape:window-maximized="1"
     inkscape:current-layer="svg2" /><path
     d="M 5.021337,4.960354 8.394937,8.048607 14.298762,1.5 15.908904,2.876687 8.586653,11.546279 3.411195,6.523116 5.021337,4.960354 z M 1,1.676204 l 11.985273,0 -1.331697,1.410011 -9.200816,0 0,9.400071 9.200816,0 0,-3.290025 1.45276,-1.762513 0,6.462549 L 1,13.896297 1,1.676204 z m 17.362423,8.870706 3.833689,3.720831 -9.200767,8.93002 -3.833689,-3.72083 9.200767,-8.930021 z M 22.924332,13.523443 19.12919,9.839978 20.7557,8.26133 c 0.598876,-0.581206 1.569805,-0.581206 2.168681,0 l 1.626462,1.578648 c 0.598876,0.581206 0.598876,1.523611 0,2.104817 l -1.626511,1.578648 z M 8.20327,24.5 7.819886,24.127945 8.826214,21.011728 11.413967,23.523333 8.20327,24.5 z"
     id="path4"
     inkscape:connector-curvature="0"
     style="fill:#000000;fill-opacity:1;stroke-width:0.2;stroke-linejoin:round" /></svg>