<?xml version="1.0" encoding="UTF-8" standalone="no"?>
<svg
   xmlns:dc="http://purl.org/dc/elements/1.1/"
   xmlns:cc="http://creativecommons.org/ns#"
   xmlns:rdf="http://www.w3.org/1999/02/22-rdf-syntax-ns#"
   xmlns:svg="http://www.w3.org/2000/svg"
   xmlns="http://www.w3.org/2000/svg"
   xmlns:sodipodi="http://sodipodi.sourceforge.net/DTD/sodipodi-0.dtd"
   xmlns:inkscape="http://www.inkscape.org/namespaces/inkscape"
   version="1.1"
   width="20"
   height="20"
   viewBox="0 0 20 20"
   enable-background="new 0 0 76.00 76.00"
   xml:space="preserve"
   id="svg2"
   inkscape:version="0.91 r13725"
   sodipodi:docname="appbar.protractor.svg"><metadata
     id="metadata10"><rdf:RDF><cc:Work
         rdf:about=""><dc:format>image/svg+xml</dc:format><dc:type
           rdf:resource="http://purl.org/dc/dcmitype/StillImage" /><dc:title></dc:title></cc:Work></rdf:RDF></metadata><defs
     id="defs8" /><sodipodi:namedview
     pagecolor="#ffffff"
     bordercolor="#666666"
     borderopacity="1"
     objecttolerance="10"
     gridtolerance="10"
     guidetolerance="10"
     inkscape:pageopacity="0"
     inkscape:pageshadow="2"
     inkscape:window-width="1440"
     inkscape:window-height="871"
     id="namedview6"
     showgrid="false"
     inkscape:zoom="8.623077"
     inkscape:cx="-27.016949"
     inkscape:cy="37.355932"
     inkscape:window-x="1440"
     inkscape:window-y="0"
     inkscape:window-maximized="1"
     inkscape:current-layer="svg2" /><path
     d="m 19.042819,0.95718105 0,18.08563795 -18.085638,0 3.6090373,-3.609037 1.3482843,1.348332 0.5328586,-0.53286 -1.3482843,-1.348284 1.6364172,-1.636465 1.9664326,1.966433 0.5328603,-0.53286 -1.966432,-1.966385 1.730938,-1.730938 1.259951,1.25995 0.532859,-0.53286 -1.25995,-1.259951 1.636417,-1.6364168 1.87805,1.8780508 0.532861,-0.53286 L 11.70143,8.2986178 13.385251,6.6147967 14.957322,8.1869148 15.49018,7.6540547 13.918111,6.0819372 15.385379,4.6146683 16.65285,5.8821384 17.185709,5.3492783 15.91824,4.0818081 19.042819,0.95718105 Z m -2.260657,8.28926655 -7.535667,7.5356664 7.535667,0 0,-7.5356665 z"
     id="path4"
     inkscape:connector-curvature="0"
     style="fill:#000000;fill-opacity:1;stroke-width:0.2;stroke-linejoin:round" /></svg>