<?xml version="1.0" encoding="UTF-8" standalone="no"?>
<svg
   xmlns:dc="http://purl.org/dc/elements/1.1/"
   xmlns:cc="http://creativecommons.org/ns#"
   xmlns:rdf="http://www.w3.org/1999/02/22-rdf-syntax-ns#"
   xmlns:svg="http://www.w3.org/2000/svg"
   xmlns="http://www.w3.org/2000/svg"
   xmlns:sodipodi="http://sodipodi.sourceforge.net/DTD/sodipodi-0.dtd"
   xmlns:inkscape="http://www.inkscape.org/namespaces/inkscape"
   version="1.1"
   width="26"
   height="26"
   viewBox="0 0 26 26"
   enable-background="new 0 0 76.00 76.00"
   xml:space="preserve"
   id="svg2"
   inkscape:version="0.48.4 r9939"
   sodipodi:docname="appbar.question.svg"><metadata
     id="metadata10"><rdf:RDF><cc:Work
         rdf:about=""><dc:format>image/svg+xml</dc:format><dc:type
           rdf:resource="http://purl.org/dc/dcmitype/StillImage" /></cc:Work></rdf:RDF></metadata><defs
     id="defs8" /><sodipodi:namedview
     pagecolor="#ffffff"
     bordercolor="#666666"
     borderopacity="1"
     objecttolerance="10"
     gridtolerance="10"
     guidetolerance="10"
     inkscape:pageopacity="0"
     inkscape:pageshadow="2"
     inkscape:window-width="1873"
     inkscape:window-height="1056"
     id="namedview6"
     showgrid="false"
     inkscape:zoom="3.1052632"
     inkscape:cx="-6.7627119"
     inkscape:cy="38"
     inkscape:window-x="47"
     inkscape:window-y="24"
     inkscape:window-maximized="1"
     inkscape:current-layer="svg2" /><path
     d="m 12.562508,20.199976 c 1.208165,0 2.18754,1.074513 2.18754,2.400042 0,1.325468 -0.979375,2.399982 -2.18754,2.399982 -1.208109,0 -2.187484,-1.074514 -2.187484,-2.399982 0,-1.325529 0.979375,-2.400042 2.187484,-2.400042 z M 13.000028,1 C 16.866022,1 20,3.743521 20,7.719985 c 0,1.440002 -0.874983,3.839983 -2.624948,4.800025 -1.750021,0.95998 -2.625004,2.249433 -2.625004,3.839983 l 0,1.920022 -4.375024,0 0,-1.440002 c 0,-3.26477 2.625004,-5.280045 3.499986,-6.240025 1.750021,-1.920022 1.750021,-2.186377 1.750021,-2.880003 0,-1.590549 -1.175283,-2.880002 -2.625003,-2.880002 -1.449776,0 -2.625004,1.289453 -2.625004,2.880002 l 0,1.440002 L 6,9.159987 6,8.200006 C 6,4.223541 9.134033,1 13.000028,1 z"
     id="path4"
     inkscape:connector-curvature="0"
     style="fill:#000000;fill-opacity:1;stroke-width:0.2;stroke-linejoin:round" /></svg>