<?xml version="1.0" encoding="UTF-8" standalone="no"?>
<svg
   xmlns:dc="http://purl.org/dc/elements/1.1/"
   xmlns:cc="http://creativecommons.org/ns#"
   xmlns:rdf="http://www.w3.org/1999/02/22-rdf-syntax-ns#"
   xmlns:svg="http://www.w3.org/2000/svg"
   xmlns="http://www.w3.org/2000/svg"
   xmlns:sodipodi="http://sodipodi.sourceforge.net/DTD/sodipodi-0.dtd"
   xmlns:inkscape="http://www.inkscape.org/namespaces/inkscape"
   version="1.1"
   width="20"
   height="20"
   viewBox="0 0 20 20"
   enable-background="new 0 0 76.00 76.00"
   xml:space="preserve"
   id="svg2"
   inkscape:version="0.91 r13725"
   sodipodi:docname="appbar.book.hardcover.open.writing.svg"><metadata
     id="metadata10"><rdf:RDF><cc:Work
         rdf:about=""><dc:format>image/svg+xml</dc:format><dc:type
           rdf:resource="http://purl.org/dc/dcmitype/StillImage" /><dc:title></dc:title></cc:Work></rdf:RDF></metadata><defs
     id="defs8" /><sodipodi:namedview
     pagecolor="#ffffff"
     bordercolor="#666666"
     borderopacity="1"
     objecttolerance="10"
     gridtolerance="10"
     guidetolerance="10"
     inkscape:pageopacity="0"
     inkscape:pageshadow="2"
     inkscape:window-width="1440"
     inkscape:window-height="851"
     id="namedview6"
     showgrid="false"
     inkscape:zoom="4.1921053"
     inkscape:cx="-3.8642821"
     inkscape:cy="69.944461"
     inkscape:window-x="0"
     inkscape:window-y="11"
     inkscape:window-maximized="1"
     inkscape:current-layer="svg2" /><path
     d="m 3.4743079,12.57858 c 1.8041498,0.550445 5.091059,0.762809 6.2027931,2.203344 l 0,-8.1175674 C 8.5654079,5.2238206 5.2784577,5.0114578 3.4743079,4.4610129 l 0,8.1175671 z m 0,-9.5860271 0,-0.1182002 C 5.2784577,3.4247984 8.5653669,3.6371612 9.677101,5.0776972 L 10,5.1739717 10.322899,5.0658682 c 1.111693,-1.4405353 4.398643,-1.6528987 6.202793,-2.2033437 l 0,0.1182002 c 0.501091,0.1563043 0.815711,0.2922468 0.815711,0.2922468 l 0,1.2673337 1.223568,-0.4840372 0,10.200261 c 0,0 -7.273414,0.528056 -8.564971,2.869116 l -4.1e-5,0.01183 C 8.708443,14.796414 1.435029,14.268359 1.435029,14.268359 l 0,-10.200262 1.2235675,0.4840364 0,-1.267333 c 0,0 0.3146199,-0.1359432 0.8157114,-0.2922475 z m 0.6117838,8.5326191 0,-1.318702 c 1.5372081,0.362711 3.6545502,0.605912 4.8942693,1.42161 l 0,1.318702 C 7.7406419,12.131042 5.6232998,11.887883 4.0860917,11.525172 Z m 0,-2.2747791 0,-1.3187029 C 5.6232998,8.2944008 7.740642,8.5375603 8.980361,9.3533003 l 0,1.3187027 C 7.7406419,9.8562625 5.6232998,9.6131037 4.0860917,9.2503929 Z m 0,-2.3178692 0,-1.3187022 C 5.6232998,5.9765324 7.740642,6.2196912 8.980361,7.0354311 l 0,1.318704 C 7.7406419,7.538394 5.6232998,7.2952345 4.0860917,6.9325237 Z m 12.4396003,5.6342283 0,-8.1175681 c -1.80415,0.550445 -5.0911,0.7628085 -6.202793,2.2033438 l 0,8.1175683 c 1.111734,-1.440537 4.398643,-1.652899 6.202793,-2.203344 z m -0.611784,-1.053408 c -1.537208,0.362711 -3.654591,0.60587 -4.894269,1.421609 l 0,-1.318702 c 1.239678,-0.81574 3.357061,-1.058899 4.894269,-1.42161 l 0,1.318703 z m 0,-2.2747793 C 14.3767,9.6012755 12.259317,9.8444343 11.019639,10.660175 l 0,-1.3187029 C 12.259358,8.5257314 14.3767,8.2825726 15.913908,7.9198618 l 0,1.3187029 z m 0,-2.3178692 C 14.3767,7.2834063 12.259317,7.5265658 11.019639,8.3423061 l 0,-1.3187025 C 12.259317,6.2078622 14.3767,5.9647034 15.913908,5.6019926 l 0,1.3187029 z"
     id="path4"
     inkscape:connector-curvature="0"
     style="fill:#000000;fill-opacity:1;stroke-width:0.2;stroke-linejoin:round" /></svg>