<?xml version="1.0" encoding="UTF-8" standalone="no"?>
<svg
   xmlns:dc="http://purl.org/dc/elements/1.1/"
   xmlns:cc="http://creativecommons.org/ns#"
   xmlns:rdf="http://www.w3.org/1999/02/22-rdf-syntax-ns#"
   xmlns:svg="http://www.w3.org/2000/svg"
   xmlns="http://www.w3.org/2000/svg"
   xmlns:sodipodi="http://sodipodi.sourceforge.net/DTD/sodipodi-0.dtd"
   xmlns:inkscape="http://www.inkscape.org/namespaces/inkscape"
   version="1.1"
   width="26"
   height="26"
   viewBox="0 0 26 26"
   enable-background="new 0 0 76.00 76.00"
   xml:space="preserve"
   id="svg2"
   inkscape:version="0.48.4 r9939"
   sodipodi:docname="appbar.ruler.svg"><metadata
     id="metadata10"><rdf:RDF><cc:Work
         rdf:about=""><dc:format>image/svg+xml</dc:format><dc:type
           rdf:resource="http://purl.org/dc/dcmitype/StillImage" /></cc:Work></rdf:RDF></metadata><defs
     id="defs8" /><sodipodi:namedview
     pagecolor="#ffffff"
     bordercolor="#666666"
     borderopacity="1"
     objecttolerance="10"
     gridtolerance="10"
     guidetolerance="10"
     inkscape:pageopacity="0"
     inkscape:pageshadow="2"
     inkscape:window-width="1873"
     inkscape:window-height="1056"
     id="namedview6"
     showgrid="false"
     inkscape:zoom="3.1052632"
     inkscape:cx="-6.7627119"
     inkscape:cy="38"
     inkscape:window-x="47"
     inkscape:window-y="24"
     inkscape:window-maximized="1"
     inkscape:current-layer="svg2" /><path
     style="fill:#000000;fill-opacity:1;stroke-width:0.2;stroke-linejoin:round"
     inkscape:connector-curvature="0"
     id="path2987"
     d="m 1,1.000126 6,0 0,5.999953 -6,0 0,-5.999953 z M 13.999979,1.000063 16.000063,1 l 6.3e-5,2.999976 0.999979,0 L 17.000042,1 19,1.000063 l 6.3e-5,3.999948 0.999979,0 0,-3.999948 1.999958,6.3e-5 6.3e-5,2.999913 0.999979,0 -6.3e-5,-2.999913 2.000021,0 0,5.99989 -17.000021,6.3e-5 0,-5.999953 2.000021,0 0,2.999913 0.999979,0 0,-2.999913 L 13,1.000063 l 6.3e-5,3.999948 0.999979,0 -6.3e-5,-3.999948 z M 1.000063,18.999984 1,16.999979 l 2.999937,-6.3e-5 0,-1.000034 L 1,15.999945 l 6.3e-5,-1.999942 3.999916,0 0,-1.000035 -3.999916,6.4e-5 0,-1.999943 L 4,11.000026 l 0,-0.999971 -2.999937,6.3e-5 0,-2.000005 6,-6.3e-5 0,16.99995 -5.999937,0 -6.3e-5,-2.000005 3,0 0,-1.000034 -3,6.3e-5 0,-2.000006 3.999979,-6.3e-5 0,-0.999971 -3.999979,0 z" /></svg>