<?xml version="1.0" encoding="UTF-8" standalone="no"?>
<svg
   xmlns:dc="http://purl.org/dc/elements/1.1/"
   xmlns:cc="http://creativecommons.org/ns#"
   xmlns:rdf="http://www.w3.org/1999/02/22-rdf-syntax-ns#"
   xmlns:svg="http://www.w3.org/2000/svg"
   xmlns="http://www.w3.org/2000/svg"
   xmlns:sodipodi="http://sodipodi.sourceforge.net/DTD/sodipodi-0.dtd"
   xmlns:inkscape="http://www.inkscape.org/namespaces/inkscape"
   version="1.1"
   width="26"
   height="26"
   viewBox="0 0 26 26"
   enable-background="new 0 0 76.00 76.00"
   xml:space="preserve"
   id="svg2"
   inkscape:version="0.48.4 r9939"
   sodipodi:docname="appbar.book.hardcover.open.writing.svg"><metadata
     id="metadata10"><rdf:RDF><cc:Work
         rdf:about=""><dc:format>image/svg+xml</dc:format><dc:type
           rdf:resource="http://purl.org/dc/dcmitype/StillImage" /></cc:Work></rdf:RDF></metadata><defs
     id="defs8" /><sodipodi:namedview
     pagecolor="#ffffff"
     bordercolor="#666666"
     borderopacity="1"
     objecttolerance="10"
     gridtolerance="10"
     guidetolerance="10"
     inkscape:pageopacity="0"
     inkscape:pageshadow="2"
     inkscape:window-width="1873"
     inkscape:window-height="1056"
     id="namedview6"
     showgrid="false"
     inkscape:zoom="1.5526316"
     inkscape:cx="27.86202"
     inkscape:cy="71.232597"
     inkscape:window-x="47"
     inkscape:window-y="24"
     inkscape:window-maximized="1"
     inkscape:current-layer="svg2" /><path
     d="M 3.857143,16.612736 C 6.384857,17.383939 10.99,17.681473 12.5476,19.699743 l 0,-11.3731625 C 10.990057,6.3083095 6.384857,6.0107775 3.857143,5.2395735 l 0,11.3731625 z m 0,-13.4305565 0,-0.165605 C 6.384857,3.7877795 10.99,4.0853115 12.5476,6.1035825 L 13,6.2384685 13.4524,6.0870095 c 1.557543,-2.01827 6.162743,-2.315803 8.690457,-3.087007 l 0,0.165605 c 0.702057,0.218991 1.142857,0.409454 1.142857,0.409454 l 0,1.775605 L 25,4.6725035 25,18.963636 c 0,0 -10.190457,0.739836 -12,4.019791 l -5.7e-5,0.01657 C 11.190457,19.720044 1,18.980209 1,18.980209 l 0,-14.2911325 1.714286,0.678162 0,-1.775604 c 0,0 0.4408,-0.190464 1.142857,-0.409455 z m 0.857143,11.9546735 0,-1.847575 c 2.153714,0.508178 5.120228,0.848916 6.857143,1.991754 l 0,1.847575 C 9.834514,15.985711 6.868,15.645031 4.714286,15.136853 z m 0,-3.187092 0,-1.847576 c 2.153714,0.508178 5.120228,0.848858 6.857143,1.991755 l 0,1.847576 C 9.834514,12.798618 6.868,12.457939 4.714286,11.949761 z m 0,-3.2474635 0,-1.847575 c 2.153714,0.508178 5.120228,0.848857 6.857143,1.991754 l 0,1.8475775 C 9.834514,9.5511555 6.868,9.2104755 4.714286,8.7022975 z m 17.428571,7.8938665 0,-11.3731635 c -2.527714,0.771204 -7.132914,1.068737 -8.690457,3.087007 l 0,11.3731635 c 1.5576,-2.018272 6.162743,-2.315804 8.690457,-3.087007 z m -0.857143,-1.475883 c -2.153714,0.508178 -5.120285,0.848857 -6.857143,1.991754 l 0,-1.847575 c 1.736858,-1.142898 4.703429,-1.483577 6.857143,-1.991755 l 0,1.847576 z m 0,-3.187092 c -2.153714,0.508178 -5.120285,0.848857 -6.857143,1.991755 l 0,-1.847576 C 16.165486,10.93447 19.132,10.593791 21.285714,10.085613 l 0,1.847576 z m 0,-3.2474635 C 19.132,9.1939035 16.165429,9.5345835 14.428571,10.677481 l 0,-1.8475755 c 1.736858,-1.142899 4.703429,-1.483578 6.857143,-1.991756 l 0,1.847576 z"
     id="path4"
     inkscape:connector-curvature="0"
     style="fill:#000000;fill-opacity:1;stroke-width:0.2;stroke-linejoin:round" /></svg>