<?xml version="1.0" encoding="UTF-8" standalone="no"?>
<svg
   xmlns:dc="http://purl.org/dc/elements/1.1/"
   xmlns:cc="http://creativecommons.org/ns#"
   xmlns:rdf="http://www.w3.org/1999/02/22-rdf-syntax-ns#"
   xmlns:svg="http://www.w3.org/2000/svg"
   xmlns="http://www.w3.org/2000/svg"
   xmlns:sodipodi="http://sodipodi.sourceforge.net/DTD/sodipodi-0.dtd"
   xmlns:inkscape="http://www.inkscape.org/namespaces/inkscape"
   version="1.1"
   width="25.881983"
   height="25.881983"
   viewBox="0 0 25.881983 25.881983"
   enable-background="new 0 0 76.00 76.00"
   xml:space="preserve"
   id="svg2"
   inkscape:version="0.91 r13725"
   sodipodi:docname="appbar.crosshair.svg"><metadata
     id="metadata10"><rdf:RDF><cc:Work
         rdf:about=""><dc:format>image/svg+xml</dc:format><dc:type
           rdf:resource="http://purl.org/dc/dcmitype/StillImage" /><dc:title /></cc:Work></rdf:RDF></metadata><defs
     id="defs8" /><sodipodi:namedview
     pagecolor="#ffffff"
     bordercolor="#666666"
     borderopacity="1"
     objecttolerance="10"
     gridtolerance="10"
     guidetolerance="10"
     inkscape:pageopacity="0"
     inkscape:pageshadow="2"
     inkscape:window-width="1440"
     inkscape:window-height="851"
     id="namedview6"
     showgrid="false"
     fit-margin-top="0"
     fit-margin-left="0"
     fit-margin-right="0"
     fit-margin-bottom="0"
     inkscape:zoom="8.1285733"
     inkscape:cx="-12.313151"
     inkscape:cy="33.525523"
     inkscape:window-x="0"
     inkscape:window-y="11"
     inkscape:window-maximized="1"
     inkscape:current-layer="svg2" /><path
     d="m 4.1750944,13.67535 0.018697,-1.783831 0.061511,1.908063 -0.080209,-1.906854 c 0.4181,-4.2110561 3.766948,-7.5599041 7.9780046,-7.9780041 1.782622,0 1.782622,0 1.782622,0 4.211056,0.4181 7.559904,3.766948 7.978004,7.9780041 l 0.04281,1.783831 0.06151,-1.662017 -0.104326,1.660808 c -0.4181,4.211056 -3.766948,7.559904 -7.978004,7.978004 l -1.783831,-0.0187 1.78504,0.06151 -1.783831,-0.04281 C 7.9420424,21.235254 4.5931944,17.886406 4.1750944,13.67535 Z m 1.793825,-1.782622 0.066702,1.722319 -0.061511,-1.662016 -0.00519,1.722319 c 0.402225,3.225508 2.9586712,5.781954 6.1841796,6.184179 l 1.722319,-0.0052 -1.723528,0 1.783831,0.0052 c 3.225508,-0.402225 5.781954,-2.958671 6.184123,-6.184179 l -0.0051,-1.722319 0.06151,1.785039 -0.05638,-1.845342 C 19.717675,8.6672199 17.161229,6.1107739 13.935721,5.7086049 l -1.783831,0.066646 1.78504,-0.061511 -1.783831,-0.00513 C 8.9275906,6.1107739 6.3711444,8.6672199 5.9689194,11.892728 Z"
     id="path4"
     inkscape:connector-curvature="0"
     style="fill:#000000;fill-opacity:1;stroke-width:0.2;stroke-linejoin:round"
     sodipodi:nodetypes="cccccccccccccccccccccccccccccccc" /></svg>