<?xml version="1.0" encoding="UTF-8" standalone="no"?>
<svg
   xmlns:dc="http://purl.org/dc/elements/1.1/"
   xmlns:cc="http://creativecommons.org/ns#"
   xmlns:rdf="http://www.w3.org/1999/02/22-rdf-syntax-ns#"
   xmlns:svg="http://www.w3.org/2000/svg"
   xmlns="http://www.w3.org/2000/svg"
   xmlns:sodipodi="http://sodipodi.sourceforge.net/DTD/sodipodi-0.dtd"
   xmlns:inkscape="http://www.inkscape.org/namespaces/inkscape"
   version="1.1"
   width="20"
   height="20"
   viewBox="0 0 20 20"
   enable-background="new 0 0 76.00 76.00"
   xml:space="preserve"
   id="svg2"
   inkscape:version="0.91 r13725"
   sodipodi:docname="appbar.cog.svg"><metadata
     id="metadata10"><rdf:RDF><cc:Work
         rdf:about=""><dc:format>image/svg+xml</dc:format><dc:type
           rdf:resource="http://purl.org/dc/dcmitype/StillImage" /><dc:title></dc:title></cc:Work></rdf:RDF></metadata><defs
     id="defs8" /><sodipodi:namedview
     pagecolor="#ffffff"
     bordercolor="#666666"
     borderopacity="1"
     objecttolerance="10"
     gridtolerance="10"
     guidetolerance="10"
     inkscape:pageopacity="0"
     inkscape:pageshadow="2"
     inkscape:window-width="1440"
     inkscape:window-height="851"
     id="namedview6"
     showgrid="false"
     inkscape:zoom="8.3842106"
     inkscape:cx="-22.625863"
     inkscape:cy="37.355932"
     inkscape:window-x="0"
     inkscape:window-y="11"
     inkscape:window-maximized="1"
     inkscape:current-layer="svg2" /><path
     d="m 5.3800091,2.8783937 2.4189568,-1.0769913 0.771867,1.733628 C 9.4127359,3.3479997 10.266732,3.3318477 11.088645,3.4696684 l 0.680293,-1.7722433 2.472046,0.9489213 -0.680292,1.7722433 c 0.702976,0.4475399 1.326781,1.0309618 1.827281,1.7332745 l 1.733632,-0.771864 1.077038,2.4189938 -1.733632,0.7718647 c 0.187031,0.8419018 0.203183,1.6958513 0.06536,2.5178053 l 1.772204,0.680291 -0.948924,2.471997 -1.772203,-0.680247 c -0.447541,0.703019 -1.030966,1.326821 -1.73328,1.827319 l 0.771823,1.733629 -2.418957,1.076991 -0.771867,-1.733628 c -0.841903,0.18703 -1.6958561,0.203182 -2.5177681,0.06536 l -0.680293,1.772199 -2.4720468,-0.948921 0.6802929,-1.7722 C 5.7363335,15.133917 5.1124843,14.550495 4.611985,13.848138 L 2.8783535,14.620002 1.8013588,12.201008 3.534991,11.429143 C 3.3479603,10.587286 3.3318083,9.733336 3.469629,8.9113819 L 1.6974251,8.2311353 2.6463492,5.7590943 4.4185523,6.4393858 C 4.8660929,5.7363667 5.4495176,5.1125203 6.1518767,4.6120217 L 5.3800091,2.8783937 Z m 3.0044988,3.4931615 c -2.0039839,0.8922119 -2.905202,3.2400215 -2.012988,5.2439568 0.892215,2.003979 3.240031,2.905194 5.2439711,2.012982 2.003984,-0.892212 2.905202,-3.240022 2.012988,-5.2439568 -0.892215,-2.0039793 -3.240031,-2.905194 -5.2439711,-2.012982 z"
     id="path4"
     inkscape:connector-curvature="0"
     style="fill:#000000;fill-opacity:1;stroke-width:0.2;stroke-linejoin:round" /></svg>