<?xml version="1.0" encoding="UTF-8" standalone="no"?>
<svg
   xmlns:dc="http://purl.org/dc/elements/1.1/"
   xmlns:cc="http://creativecommons.org/ns#"
   xmlns:rdf="http://www.w3.org/1999/02/22-rdf-syntax-ns#"
   xmlns:svg="http://www.w3.org/2000/svg"
   xmlns="http://www.w3.org/2000/svg"
   xmlns:sodipodi="http://sodipodi.sourceforge.net/DTD/sodipodi-0.dtd"
   xmlns:inkscape="http://www.inkscape.org/namespaces/inkscape"
   version="1.1"
   width="20"
   height="20"
   viewBox="0 0 20 20"
   enable-background="new 0 0 76.00 76.00"
   xml:space="preserve"
   id="svg2"
   inkscape:version="0.91 r13725"
   sodipodi:docname="appbar.page.download.svg"><metadata
     id="metadata10"><rdf:RDF><cc:Work
         rdf:about=""><dc:format>image/svg+xml</dc:format><dc:type
           rdf:resource="http://purl.org/dc/dcmitype/StillImage" /><dc:title></dc:title></cc:Work></rdf:RDF></metadata><defs
     id="defs8" /><sodipodi:namedview
     pagecolor="#ffffff"
     bordercolor="#666666"
     borderopacity="1"
     objecttolerance="10"
     gridtolerance="10"
     guidetolerance="10"
     inkscape:pageopacity="0"
     inkscape:pageshadow="2"
     inkscape:window-width="1440"
     inkscape:window-height="851"
     id="namedview6"
     showgrid="false"
     inkscape:zoom="8.3842106"
     inkscape:cx="-22.625863"
     inkscape:cy="37.355932"
     inkscape:window-x="0"
     inkscape:window-y="11"
     inkscape:window-maximized="1"
     inkscape:current-layer="svg2" /><path
     d="m 3.3854363,1.1805816 8.5438127,0 4.685315,5.3546467 0,12.2841897 -13.2291278,0 0,-17.6388363 z m 1.4699031,1.679889 0,14.2790584 10.2893206,0 0,-8.8194179 -4.777184,0 0,-5.4596404 -5.5121366,0 z m 6.9820396,0.5249656 0,3.254785 2.847937,0 -2.847937,-3.254785 z m -4.7771851,4.5147022 1.4699031,0 0,3.5697646 1.1024273,-1.259917 0,1.994868 -1.8373788,2.099862 -1.8373789,-2.309848 0,-1.784882 1.1024273,1.259917 0,-3.5697646 z m 2.9398071,6.7195566 0,1.67989 -4.4097102,0 0,-1.67989 4.4097102,0 z"
     id="path4"
     inkscape:connector-curvature="0"
     style="fill:#000000;fill-opacity:1;stroke-width:0.2;stroke-linejoin:round" /></svg>