<?xml version="1.0" encoding="UTF-8" standalone="no"?>
<svg
   xmlns:dc="http://purl.org/dc/elements/1.1/"
   xmlns:cc="http://creativecommons.org/ns#"
   xmlns:rdf="http://www.w3.org/1999/02/22-rdf-syntax-ns#"
   xmlns:svg="http://www.w3.org/2000/svg"
   xmlns="http://www.w3.org/2000/svg"
   xmlns:sodipodi="http://sodipodi.sourceforge.net/DTD/sodipodi-0.dtd"
   xmlns:inkscape="http://www.inkscape.org/namespaces/inkscape"
   version="1.1"
   width="26"
   height="26"
   viewBox="0 0 26 26"
   enable-background="new 0 0 76.00 76.00"
   xml:space="preserve"
   id="svg2"
   inkscape:version="0.48.4 r9939"
   sodipodi:docname="appbar.map.gps.svg"><metadata
     id="metadata10"><rdf:RDF><cc:Work
         rdf:about=""><dc:format>image/svg+xml</dc:format><dc:type
           rdf:resource="http://purl.org/dc/dcmitype/StillImage" /></cc:Work></rdf:RDF></metadata><defs
     id="defs8" /><sodipodi:namedview
     pagecolor="#ffffff"
     bordercolor="#666666"
     borderopacity="1"
     objecttolerance="10"
     gridtolerance="10"
     guidetolerance="10"
     inkscape:pageopacity="0"
     inkscape:pageshadow="2"
     inkscape:window-width="1873"
     inkscape:window-height="1056"
     id="namedview6"
     showgrid="false"
     inkscape:zoom="3.1052632"
     inkscape:cx="-6.7627119"
     inkscape:cy="38"
     inkscape:window-x="47"
     inkscape:window-y="24"
     inkscape:window-maximized="1"
     inkscape:current-layer="svg2" /><path
     d="m 18.217391,16.567016 c 1.152574,0 2.086957,0.886217 2.086957,1.979379 0,1.093162 -0.934383,1.97938 -2.086957,1.97938 -1.152574,0 -2.086956,-0.886218 -2.086956,-1.97938 0,-1.093162 0.934382,-1.979379 2.086956,-1.979379 z m 0,-0.98969 c -1.728887,0 -3.130434,1.329302 -3.130434,2.969069 0,1.639768 1.401547,2.96907 3.130434,2.96907 1.728887,0 3.130435,-1.329302 3.130435,-2.96907 0,-1.639767 -1.401548,-2.969069 -3.130435,-2.969069 z m 0,-1.484535 c 2.593305,0 4.695652,1.993928 4.695652,4.453604 0,2.459677 -2.102347,4.453605 -4.695652,4.453605 -2.593356,0 -4.695652,-1.993928 -4.695652,-4.453605 0,-2.459676 2.102296,-4.453604 4.695652,-4.453604 z M 7.108678,4.567026 12.891322,6.134051 17.847843,3 25,4.690737 25,18.05155 23.349739,17.651914 c -0.208226,-1.08188 -0.787409,-2.040939 -1.607948,-2.754307 l 1.171252,0.308585 0,-8.536075 -4.695652,-1.237113 0,8.164942 -0.521739,0.02445 0,-8.189387 L 13,8.402074 13,17.061861 13.308139,16.86704 C 13.108678,17.391378 13,17.956837 13,18.546395 c 0,0.270978 0.02296,0.536858 0.06715,0.796058 L 12.891322,19.453595 7.108678,17.886619 1,20.278353 1,6.917539 7.108678,4.567026 z m -0.369548,11.134011 0,-8.536075 -3.652173,1.360823 0,8.536076 3.652173,-1.360824 z m 0.52174,-8.659787 0,8.536076 5.217391,1.237112 0,-8.288653 L 7.26087,7.04125 z"
     id="path4"
     inkscape:connector-curvature="0"
     style="fill:#000000;fill-opacity:1;stroke-width:0.2;stroke-linejoin:round" /></svg>