<?xml version="1.0" encoding="UTF-8" standalone="no"?>
<svg
   xmlns:dc="http://purl.org/dc/elements/1.1/"
   xmlns:cc="http://creativecommons.org/ns#"
   xmlns:rdf="http://www.w3.org/1999/02/22-rdf-syntax-ns#"
   xmlns:svg="http://www.w3.org/2000/svg"
   xmlns="http://www.w3.org/2000/svg"
   xmlns:sodipodi="http://sodipodi.sourceforge.net/DTD/sodipodi-0.dtd"
   xmlns:inkscape="http://www.inkscape.org/namespaces/inkscape"
   version="1.1"
   width="26"
   height="26"
   viewBox="0 0 25.999796 25.999796"
   enable-background="new 0 0 76.01 76.01"
   xml:space="preserve"
   id="svg2"
   inkscape:version="0.48.4 r9939"
   sodipodi:docname="appbar.layer.add.svg"><metadata
     id="metadata10"><rdf:RDF><cc:Work
         rdf:about=""><dc:format>image/svg+xml</dc:format><dc:type
           rdf:resource="http://purl.org/dc/dcmitype/StillImage" /></cc:Work></rdf:RDF></metadata><defs
     id="defs8" /><sodipodi:namedview
     pagecolor="#ffffff"
     bordercolor="#666666"
     borderopacity="1"
     objecttolerance="10"
     gridtolerance="10"
     guidetolerance="10"
     inkscape:pageopacity="0"
     inkscape:pageshadow="2"
     inkscape:window-width="1873"
     inkscape:window-height="1056"
     id="namedview6"
     showgrid="false"
     inkscape:zoom="3.1048302"
     inkscape:cx="-6.7636548"
     inkscape:cy="38.005299"
     inkscape:window-x="47"
     inkscape:window-y="24"
     inkscape:window-maximized="1"
     inkscape:current-layer="svg2" /><path
     d="m 5.9992275,11.999846 2.999565,0 0,4.999284 4.9992975,0 0,2.999558 -4.9992975,0 0,4.999285 -2.999565,0 0,-4.999285 -4.999235,0 0,-2.999558 4.999235,0 0,-4.999284 z M 12.999898,0.9999924 24.999803,6.9999294 12.999898,12.999867 9.9988165,11.49933 l 0,-0.499442 -0.998887,0 -7.999937,-3.9999586 11.9999055,-5.999937 z m 11.999905,17.9998116 -11.999905,6 -3.0010815,-1.5006 0,-2.500495 2.9992495,0 0.0018,0.0011 0.0022,-0.0011 1.995816,0 6.4e-5,-0.997937 6.001847,-3.000947 3.999968,1.999979 z m 0,-5.999937 -10.001752,5.000863 0,-2.001558 -1.999858,0 -2.9993765,-6.3e-5 0,-2.4998 3.0010825,1.500537 7.999936,-3.999958 3.999968,1.999979 z m -23.9998105,0 3.9994,-1.999727 -1.89e-4,1.999727 6.3e-5,1.999663 -3.999274,-1.999663 z"
     id="path4"
     inkscape:connector-curvature="0"
     style="fill:#000000;fill-opacity:1;stroke-width:0.2;stroke-linejoin:round" /></svg>