<?xml version="1.0" encoding="UTF-8" standalone="no"?>
<svg
   xmlns:dc="http://purl.org/dc/elements/1.1/"
   xmlns:cc="http://creativecommons.org/ns#"
   xmlns:rdf="http://www.w3.org/1999/02/22-rdf-syntax-ns#"
   xmlns:svg="http://www.w3.org/2000/svg"
   xmlns="http://www.w3.org/2000/svg"
   xmlns:sodipodi="http://sodipodi.sourceforge.net/DTD/sodipodi-0.dtd"
   xmlns:inkscape="http://www.inkscape.org/namespaces/inkscape"
   version="1.1"
   width="20"
   height="20"
   viewBox="0 0 20 20"
   enable-background="new 0 0 76.00 76.00"
   xml:space="preserve"
   id="svg2"
   inkscape:version="0.91 r13725"
   sodipodi:docname="appbar.page.text.svg"><metadata
     id="metadata10"><rdf:RDF><cc:Work
         rdf:about=""><dc:format>image/svg+xml</dc:format><dc:type
           rdf:resource="http://purl.org/dc/dcmitype/StillImage" /><dc:title></dc:title></cc:Work></rdf:RDF></metadata><defs
     id="defs8" /><sodipodi:namedview
     pagecolor="#ffffff"
     bordercolor="#666666"
     borderopacity="1"
     objecttolerance="10"
     gridtolerance="10"
     guidetolerance="10"
     inkscape:pageopacity="0"
     inkscape:pageshadow="2"
     inkscape:window-width="1440"
     inkscape:window-height="851"
     id="namedview6"
     showgrid="false"
     inkscape:zoom="8.3842106"
     inkscape:cx="-22.625863"
     inkscape:cy="37.355932"
     inkscape:window-x="0"
     inkscape:window-y="11"
     inkscape:window-maximized="1"
     inkscape:current-layer="svg2" /><path
     d="m 2.848713,0.46495079 9.634373,0 4.668201,5.33508731 0,13.7350109 -14.302574,0 0,-19.0700982 z m 1.5891749,1.81619961 0,15.4376986 11.1242241,0 0,-9.9890989 -4.767525,0 0,-5.4485997 -6.3566991,0 z m 7.9458741,0.5675627 0,3.0648373 2.681733,0 -2.681733,-3.0648373 z m -7.1512867,0.3405371 4.7675247,0 0,2.2702507 -4.7675247,0 0,-2.2702507 z m 0,3.1783505 4.7675247,0 0,1.3621494 -4.7675247,0 0,-1.3621494 z m 0,2.2702492 9.5350497,0 0,1.3621501 -9.5350497,0 0,-1.3621501 z m 0,2.2702501 9.5350497,0 0,1.36215 -9.5350497,0 0,-1.36215 z m 0,2.27025 9.5350497,0 0,1.362149 -9.5350497,0 0,-1.362149 z m 0,2.270249 9.5350497,0 0,1.362151 -9.5350497,0 0,-1.362151 z"
     id="path4"
     inkscape:connector-curvature="0"
     style="fill:#000000;fill-opacity:1;stroke-width:0.2;stroke-linejoin:round" /></svg>